<?xml version="1.0" encoding="UTF-8"?>
<svg id="Artwork" xmlns="http://www.w3.org/2000/svg" version="1.1" viewBox="0 0 679.9 454.2">
  <defs>
    <style>
      .cls-1 {
        stroke: #74c275;
        stroke-width: 24px;
      }

      .cls-1, .cls-2 {
        fill: none;
        stroke-miterlimit: 10;
      }

      .cls-2 {
        stroke: #000;
        stroke-width: 8px;
      }

      .cls-3 {
        fill: #74c275;
        stroke-width: 0px;
      }
    </style>
  </defs>
  <circle class="cls-1" cx="192.2" cy="291.5" r="60.2"/>
  <circle class="cls-1" cx="511.8" cy="291.5" r="60.2"/>
  <line class="cls-2" x1="234" y1="46.8" x2="245.3" y2="60.6"/>
  <line class="cls-2" x1="179.2" y1="139.4" x2="196.8" y2="142.6"/>
  <line class="cls-2" x1="40" y1="356.2" x2="55.4" y2="347.2"/>
  <line class="cls-2" x1="62.6" y1="391.1" x2="640" y2="391.1"/>
  <path class="cls-2" d="M288.9,291.5c0,53.6-43.4,97-97,97s-97-43.4-97-97,43.4-97,97-97,80.2,28.5,92.5,67.8"/>
  <path class="cls-2" d="M499.9,195.2"/>
  <path class="cls-2" d="M499.9,195.2c3.9-.5,7.8-.7,11.9-.7,53.6,0,97,43.4,97,97s-43.4,97-97,97-97-43.4-97-97,25-75.5,60.5-89.9"/>
  <polyline class="cls-2" points="511.8 291.5 453.9 149.2 274.8 149.2 188 291.5 308 291.5"/>
  <line class="cls-2" x1="252.7" y1="104.4" x2="323.4" y2="262.3"/>
  <line class="cls-2" x1="359.4" y1="273.4" x2="458.7" y2="160.9"/>
  <circle class="cls-2" cx="334.6" cy="287.2" r="24.9"/>
  <path class="cls-2" d="M484.3,129.3s16-3.3,15.5-23.2-23.8-17.1-23.8-17.1l-42.6,1.1,13.8,38.7"/>
  <path class="cls-3" d="M290.5,90h-63.6c-10,0-13.6,11.1-4.9,15.3l27.4,13.4c2.7,1.3,6,1.5,8.9.4l36.1-13.4c9.7-3.6,6.6-15.7-4-15.7Z"/>
</svg>