<?xml version="1.0" encoding="utf-8"?>
<!-- Generator: Adobe Illustrator 25.1.0, SVG Export Plug-In . SVG Version: 6.00 Build 0)  -->
<svg version="1.1" id="Icons" xmlns="http://www.w3.org/2000/svg" xmlns:xlink="http://www.w3.org/1999/xlink" x="0px" y="0px"
	 viewBox="0 0 80 80" style="enable-background:new 0 0 80 80;" xml:space="preserve">
<style type="text/css">
	.st0{fill:#FFFFFF;}
</style>
<g id="Location">
	<path id="Path_144" d="M40,13.5c-12.4,0-22.4,9.9-22.5,22.3c0,15.8,20.7,29.8,21.6,30.4c0.3,0.2,0.6,0.3,0.9,0.3
		c0.3,0,0.6-0.1,0.9-0.3c0.9-0.6,21.6-14.6,21.6-30.4C62.4,23.4,52.4,13.5,40,13.5z"/>
	<path id="Union_4" class="st0" d="M40.3,49.7c-1.5,0-2.9-0.9-3.5-2.3l-7.4-17.6h1.2c0.6,0,1.1,0.4,1.4,0.9l6.8,16
		c0.2,0.6,0.8,0.9,1.4,0.9h1.2l-7.5-17.8h1.2c0.6,0,1.1,0.4,1.4,0.9l8,19L40.3,49.7z M43.6,42.4c-0.2-0.4-0.2-0.8,0-1.1l4-9.4H47
		c-1,0-2,0.6-2.4,1.6l-2.4,5.7l-0.9-2.1c-0.1-0.4-0.1-0.8,0-1.1l1.7-3.8c0.6-1.4,2-2.3,3.5-2.3h4.2l-6.2,14.6L43.6,42.4z"/>
</g>
</svg>
