<?xml version="1.0" encoding="UTF-8"?>
<svg xmlns="http://www.w3.org/2000/svg" version="1.1" viewBox="0 0 715 181">
  <defs>
    <style>
      .cls-1 {
        fill: #e8378c;
      }

      .cls-2 {
        fill: #81ccdf;
      }

      .cls-3 {
        fill: #211b43;
      }
    </style>
  </defs>
  <!-- Generator: Adobe Illustrator 28.7.1, SVG Export Plug-In . SVG Version: 1.2.0 Build 142)  -->
  <g>
    <g id="a">
      <path class="cls-3" d="M689.6,7.8L25,8.8c-10.5,0-19,6.7-19,15.1l-.2,135.7c0,8.3,8.5,15,19,15l664.6-1c10.5,0,19-6.7,19-15.1l.2-135.7c0-8.3-8.5-15-19-15h0Z"/>
      <path class="cls-2" d="M32.1,125.2l28.7-67.3h-27.9v-29.6h65.2s0,25.8,0,25.8l-28.5,67.3h28.5v29.6H32.1s0-25.8,0-25.8h0Z"/>
      <path class="cls-2" d="M103.9,28.2h63.2s0,29.6,0,29.6h-30v17h26.8v28.8h-26.8v17.7h30.6v29.6h-63.7V28.2h0,0Z"/>
      <path class="cls-2" d="M173.6,28.2h32.6c14,0,26.3,3.3,34.5,11,7.1,6.7,11.2,16.3,11.2,29.6v1.9c0,17.7-6.9,26.7-15.3,32.8l17.2,47.4h-35.4l-11.6-37h-.4v37h-32.8V28.2h0Z"/>
      <path class="cls-2" d="M255.6,94.1v-9.1c0-39.3,15.8-59.5,42.3-59.5,26.5,0,42.3,20.2,42.3,59.4v9.1c0,39.3-15.8,59.5-42.3,59.5-26.5,0-42.3-20.2-42.3-59.4Z"/>
      <path class="cls-2" d="M372,28.1h32.2c14.5,0,27.8,2.6,36.2,10.5,5.2,4.9,8.4,12.1,8.4,21.9v1.8c0,12.1-7.3,21-15.7,25.8,8.4,4.4,17.7,12.4,17.7,26.7v1.6c0,24-18.6,34.6-46.4,34.6h-32.4V28.2h0Z"/>
      <path class="cls-2" d="M455.5,28.1h33.2v122.8s-33.1,0-33.1,0V28.1h0Z"/>
      <path class="cls-2" d="M496.2,28.1h33.2v93.1h25.7v29.6h-58.9V28.1s0,0,0,0Z"/>
      <path class="cls-2" d="M560.3,28.1h33.2v93.1h25.7v29.6h-58.9V28.1s0,0,0,0Z"/>
      <path class="cls-2" d="M624.6,145.4v-30.5c8,4.6,17.9,8.1,25.9,8.1s8.6-2.3,8.6-6.1v-.4c0-3.9-3.7-6.8-10.1-11.6-17.3-13.1-26.3-21.6-26.3-40.3v-1.2c0-23,16.8-37,37.8-37,11.4,0,19.8,1.9,26.7,4.9v30.9c-7.6-4-16-6.1-23.1-6.1s-8,2.8-8,6v.4c0,3.9,3.3,6.8,10.1,11.9,17.3,13.1,26.3,21.9,26.3,40.3v1.2c0,22.3-17.9,36.8-38.4,36.8s-22.2-2.8-29.4-7.2h0Z"/>
      <path class="cls-1" d="M311.5,103.3c0,1.7,1.2,4.2,3,5.1,1.6.9,3,1.3,3,2.2s-4.9,3.4-10,1c-5.1-2.4-5.5-5.3-5.9-6.5,5.5-3.1,9.9-1.9,9.9-1.9h0Z"/>
      <path class="cls-1" d="M317.5,100.3c.7-3.1,5.7-7.6,6.3-13.8.8-8.1-3.5-22.5-24.8-22.5s-24.4,14.9-24.4,21.1,6.5,12.6,6.2,15.5c5.3,3.9,25.2,8.5,36.8-.3h0Z"/>
      <path class="cls-1" d="M286.5,103.3c0,1.7-1.2,4.2-3,5.1-1.6.9-3,1.3-3,2.2s4.9,3.4,10,1,5.5-5.3,5.9-6.5c-5.5-3.1-9.9-1.9-9.9-1.9h0Z"/>
      <path class="cls-1" d="M304.7,104.5s-.4,3.4-1,5.3c-.6,2-1.4,5.3-5,5.3-3.6,0-4.5-3.8-4.7-5.1-.3-1.5-.7-5.8-.7-5.8,0,0,5.6-4.8,11.4.4h0Z"/>
      <path class="cls-1" d="M317.4,100.2c-.5,3.6,3.4,3.7,3.2,5.7-.2,2-8.2,2-10.4-2-2.2-4,7.2-3.7,7.2-3.7h0Z"/>
      <path class="cls-1" d="M280.8,100.2c.5,3.6-3.4,3.7-3.2,5.7s8.2,2,10.4-2c2.2-4-7.2-3.7-7.2-3.7h0Z"/>
    </g>
  </g>
</svg>