<svg xmlns="http://www.w3.org/2000/svg" version="1.1" xmlns:xlink="http://www.w3.org/1999/xlink" xmlns:svgjs="http://svgjs.dev/svgjs" width="23.1px" height="22px"><svg version="1.1" id="SvgjsSvg1007" xmlns="http://www.w3.org/2000/svg" xmlns:xlink="http://www.w3.org/1999/xlink" x="0px" y="0px" width="23.1px" height="22px" viewBox="0 0 23.1 22" style="enable-background:new 0 0 23.1 22;" xml:space="preserve">
<style type="text/css">
	.st0{fill:#122A4A;}
</style>
<g id="SvgjsG1006" transform="translate(-38.27 -37)">
	<path id="SvgjsPath1005" class="st0" d="M38.3,37l8.1,19.5C47,58,48.4,59,50.1,59h4.5l-8.7-21c-0.3-0.6-0.8-1-1.5-1h-1.4l8.2,19.8H50
		c-0.7,0-1.2-0.4-1.5-1L41.1,38c-0.3-0.6-0.8-1-1.5-1H38.3z"></path>
	<path id="SvgjsPath1004" class="st0" d="M52.2,47.2l-1-2.3c-0.2-0.4-0.2-0.8,0-1.2l1.8-4.2c0.6-1.5,2.1-2.5,3.8-2.5h4.5l-6.7,16l-0.9-2.3
		c-0.2-0.4-0.2-0.8,0-1.2L58,39.2h-0.5c-1.1,0-2.2,0.7-2.6,1.7L52.2,47.2z"></path>
</g>
</svg><style>@media (prefers-color-scheme: light) { :root { filter: none; } }
@media (prefers-color-scheme: dark) { :root { filter: none; } }
</style></svg>