<?xml version="1.0" encoding="utf-8"?>
<!-- Generator: Adobe Illustrator 25.2.1, SVG Export Plug-In . SVG Version: 6.00 Build 0)  -->
<svg version="1.1" id="Layer_1" xmlns="http://www.w3.org/2000/svg" xmlns:xlink="http://www.w3.org/1999/xlink" x="0px" y="0px"
	 width="106.4px" height="22px" viewBox="0 0 106.4 22" style="enable-background:new 0 0 106.4 22;" xml:space="preserve">
<style type="text/css">
	.st0{fill:#122A4A;}
</style>
<g id="Verto_logo_master_AWK_RGB_horizontal_black" transform="translate(-38.27 -37)">
	<path id="Path_48" class="st0" d="M38.3,37l8.1,19.5C47,58,48.4,59,50.1,59h4.5l-8.7-21c-0.3-0.6-0.8-1-1.5-1h-1.4l8.2,19.8H50
		c-0.7,0-1.2-0.4-1.5-1L41.1,38c-0.3-0.6-0.8-1-1.5-1H38.3z"/>
	<path id="Path_49" class="st0" d="M52.2,47.2l-1-2.3c-0.2-0.4-0.2-0.8,0-1.2l1.8-4.2c0.6-1.5,2.1-2.5,3.8-2.5h4.5l-6.7,16l-0.9-2.3
		c-0.2-0.4-0.2-0.8,0-1.2L58,39.2h-0.5c-1.1,0-2.2,0.7-2.6,1.7L52.2,47.2z"/>
	<path id="Path_50" class="st0" d="M86.2,41L80,55.4h-2L71.7,41h2.2L79,52.9L84.2,41H86.2z"/>
	<path id="Path_51" class="st0" d="M99.4,53.6v1.8H89.1V41h10.1v1.8h-8v4.4h7.1V49h-7.1v4.6L99.4,53.6z"/>
	<path id="Path_52" class="st0" d="M121.2,42.8h-4.9V41H128v1.8h-4.9v12.6h-2L121.2,42.8z"/>
	<path id="Path_53" class="st0" d="M133.3,54.6c-1.1-0.6-2.1-1.5-2.7-2.6c-1.3-2.3-1.3-5.2,0-7.5c0.6-1.1,1.6-2,2.7-2.6
		c2.4-1.3,5.3-1.3,7.8,0c1.1,0.6,2.1,1.5,2.7,2.6c1.3,2.4,1.3,5.2,0,7.6c-0.6,1.1-1.6,2-2.7,2.6C138.6,55.9,135.7,55.9,133.3,54.6z
		 M140,53c0.8-0.5,1.5-1.2,2-2c1-1.8,1-3.9,0-5.7c-0.5-0.8-1.2-1.5-2-2c-0.9-0.5-1.8-0.7-2.8-0.7c-1,0-2,0.2-2.8,0.7
		c-0.8,0.5-1.5,1.2-2,2c-1,1.8-1,3.9,0,5.7c0.5,0.8,1.2,1.5,2,2c0.9,0.5,1.8,0.7,2.8,0.7C138.1,53.8,139.1,53.5,140,53L140,53z"/>
	<path id="Path_54" class="st0" d="M111.1,50.6l0.2-0.1c0.9-0.3,1.7-0.9,2.3-1.7c0.6-0.8,0.9-1.8,0.8-2.8c0.1-1.4-0.5-2.8-1.6-3.7
		c-1.2-1-2.8-1.4-4.4-1.3h-5.6v14.4h2V51h3.5c0.2,0,0.4,0,0.6,0c0.3,2.7,2.6,4.6,5.3,4.6v-2.1C112.7,53.6,111.2,52.3,111.1,50.6z
		 M108.4,49.3h-3.5v-6.5h3.5c1-0.1,2.1,0.2,2.9,0.8c1.3,1.3,1.4,3.4,0.1,4.8c0,0,0,0-0.1,0.1C110.5,49.1,109.4,49.4,108.4,49.3
		L108.4,49.3z"/>
</g>
</svg>
